<?xml version="1.0" encoding="UTF-8"?>
<!DOCTYPE svg PUBLIC "-//W3C//DTD SVG 1.1//EN" "http://www.w3.org/Graphics/SVG/1.1/DTD/svg11.dtd">
<!-- Creator: CorelDRAW 2020 (64-Bit) -->
<svg xmlns="http://www.w3.org/2000/svg" xml:space="preserve" width="276.8mm" height="160.1mm" version="1.1" style="shape-rendering:geometricPrecision; text-rendering:geometricPrecision; image-rendering:optimizeQuality; fill-rule:evenodd; clip-rule:evenodd"
viewBox="0 0 27680 16010"
 xmlns:xlink="http://www.w3.org/1999/xlink"
 xmlns:xodm="http://www.corel.com/coreldraw/odm/2003">
 <defs>
  <style type="text/css">
   <![CDATA[
    .str0 {stroke:#00BAA6;stroke-width:20;stroke-miterlimit:22.9256}
    .fil0 {fill:none}
    .fil2 {fill:#00BAA6}
    .fil1 {fill:white}
   ]]>
  </style>
    <clipPath id="id0">
     <rect x="-1.03" y="-20.93" width="27680" height="16010"/>
    </clipPath>
 </defs>
 <g id="Layer_x0020_1">
  <metadata id="CorelCorpID_0Corel-Layer"/>
  <rect class="fil0" x="-3" y="4.47" width="27680" height="16010"/>
  <g id="_2489420490352">
   <g style="clip-path:url(#id0)">
    <image id="SIKUDANG-logo.png" x="-1.03" y="-20.93" width="27680" height="16010" xlink:href="sikudang-logo-fix_Images\sikudang-logo-fix_ImgID1.png"/>
   </g>
   <path class="fil1 str0" d="M9260.92 14904.09l17253.69 0c60.98,0 79.38,-18.4 79.38,-79.38l0 -14157.61 -17333.07 0 0 14236.99z"/>
   <path class="fil1 str0" d="M1983.68 2678.28c0,1213.66 -103.81,2899.03 344.41,3916.1 240.02,544.62 353.88,677.11 639.89,1133.1 932.92,1487.35 1026.86,2466.61 1026.86,4371.55l0 1349.61c0,548.31 -38.84,926.19 -529.25,926.19 -292.05,0 -449.87,-267.86 -449.87,-502.78l0 -4736.85 -1032.04 0 0 4472.22c0,685.91 232.59,1150.61 784.15,1412.26 334.99,158.92 1076.04,167.95 1412.45,16.93 583.28,-261.84 820.15,-731.29 820.15,-1376.27l0 -3202c0,-687.79 -109.95,-1183.67 -294.16,-1690.55 -512.88,-1411.18 -1690.55,-2069.29 -1690.55,-4290.04l0 -1931.78c0,-630.24 737.78,-615.73 900.93,-265.84 58.1,124.58 78.19,367.71 78.19,556.92l0 3307.86 1005.59 0 0 -3546.02c0,-243.37 -95.22,-569.89 -222.82,-756.31 -25.98,-37.96 -125.4,-161.93 -155.01,-189.01 -42.82,-39.11 -133.28,-102.52 -182.64,-134.92 -405.72,-266.26 -664.66,-242.9 -1133.15,-242.9 -727.74,0 -1323.13,564.36 -1323.13,1402.53z"/>
   <polygon class="fil1 str0" points="6641.11,14851.16 7726.08,14851.16 7726.08,3869.11 6641.11,3869.11 "/>
   <path class="fil2" d="M21326.6 6144.91l6.83 96.95c717.82,-0.2 1486.26,72.26 2055.97,-206.48 1785.53,-873.6 1325.44,-3786.21 -950.05,-3786.21l-1113.09 0 0.34 3895.74z"/>
   <path class="fil2" d="M16060.53 13333.56l857.22 0 0 -2470.89c90.2,13.97 98.19,82.66 196.37,265.29 59.26,110.2 121.99,217.56 177.75,323.45 295.45,561.18 676.63,1189.75 960.55,1740.09 36.33,70.43 35.79,116.7 111.68,142.19l812.06 0c29.58,-254.28 9.67,-3459.54 9.42,-3992.49l-857.87 0 -0.18 2463.76c-67.74,-8.9 -18.24,10.94 -61.74,-32.02 -6.68,-6.59 -46.49,-72.71 -51.33,-81.44l-1127.6 -2047.9c-229.09,-394.79 -19.51,-302.4 -1025.85,-302.4l-0.48 3992.36z"/>
   <path class="fil2" d="M25152.4 11211.91l-1943.46 -3.64 -9.26 649.28 1012.36 0.06c-187.71,1065.47 -2181.31,1057.02 -2285.6,-392.31 -47.6,-661.7 313.23,-1127.9 769.37,-1308.25 263.85,-104.32 606.02,-96.42 880.91,9.11 144.32,55.42 237.89,125.18 323.48,207.55 376.65,362.52 -178.75,293.03 1137.46,293.03 -239.11,-825.91 -1307.06,-1632.87 -2461.35,-1312.71 -871.33,241.69 -1736.39,1182.3 -1487.19,2376.68 191.17,916.27 1097.69,1796.82 2278.06,1638.47 1034.24,-138.75 1784.57,-994.77 1785.22,-2157.27z"/>
   <path class="fil2" d="M10487.3 13333.69l903.87 0 303.54 -810.31 1560.74 -3.89 285.84 813.63 919.58 0.09 -1425.35 -3502.14c-49.17,-120.89 -132.54,-420.57 -228.6,-489.87l-661.56 0c-85.12,23.62 -818.49,1933.66 -842.98,1992.23 -191.8,458.89 -651.12,1671.66 -815.08,2000.26z"/>
   <path class="fil2" d="M19498.69 2252.47l-866.68 -0.72c0.02,645.45 0.02,1290.18 0.02,1934.91 0,905.66 -6.29,1247.06 -850.11,1247.06 -743.27,0 -717.81,-552.35 -717.8,-1220.6 0,-653.54 0,-1307.1 0,-1960.65l-866.66 -3.01c0,556.2 -30.19,2390.8 32.84,2802.97 119.1,778.93 709.26,1244.42 1605.68,1247.11 903.57,2.71 1494.46,-442.97 1625.71,-1223.94 69.62,-414.25 37,-2267.26 37,-2823.13z"/>
   <path class="fil2" d="M11466.43 6241.66l857.55 0 4.54 -1778.41c130.49,67.71 545.11,706.36 656.56,869.66 228.74,335.14 421.57,597.17 642.19,905.46l1150.64 2.85c-85.92,-62.04 -1146.66,-1439.04 -1389.02,-1737.53 -317.08,-390.5 -262.15,-148.29 561.8,-1263.09 130.14,-176.07 244.59,-318.89 377,-496.9 110.87,-149.05 257.48,-354.81 374.76,-484.75l-1048.72 -9.78c-71.54,19.12 -830.78,1130.23 -975.58,1333.26 -99.46,139.44 -225.33,381.1 -342.82,437.4l-8.37 -1767.36 -860.55 -2.07 0.02 3991.26z"/>
   <path class="fil1 str0" d="M5820.77 1990.24c0,1291.74 1474.77,1844.9 2322.39,999.26 667.37,-665.81 484.96,-1744.17 -365.55,-2188.69 -514.03,-268.66 -1181.27,-124.46 -1583.93,292.13l-250.33 358.31c-63.85,129.25 -122.58,356.58 -122.58,538.99z"/>
   <path class="fil1" d="M22186.08 5421.7c660.39,145.71 1410.5,-312.01 1410.61,-1181.95 0.08,-761.29 -594.69,-1300.36 -1406.99,-1176.01l-3.62 2357.96z"/>
   <path class="fil2" d="M6322.5 2016.71l8.16 735.01c142.42,79.9 197.2,81.61 250.18,-51.78 31.17,-78.48 -36.58,-100.74 113.2,-100.74l1032.04 0c115.55,24.51 -1.91,155.37 145.3,197.4 251.56,71.82 173.39,-368.9 173.39,-779.89 0,-143.04 -187.45,-640.12 -248.4,-731.87 -263.76,-35.12 -784.43,-13.97 -1075.87,-13.54 -215.14,0 -210.1,126.08 -266.92,290.89 -43.6,126.46 -131.08,317.71 -131.08,454.52z"/>
   <path class="fil1" d="M11965.31 11799.31l1007.07 7.96c-57.25,-226.45 -167.92,-490.27 -246.14,-712.45 -40.84,-115.96 -85.18,-238.07 -124.76,-351.68l-108.13 -290.69c-25.36,-48.62 -14.36,-28.34 -33.35,-53.34l-494.69 1400.2z"/>
   <polygon class="fil1" points="6505.1,1835.71 7858.4,1837.92 7721.39,1405.71 6641.11,1401.76 "/>
  </g>
 </g>
</svg>
